<?xml version="1.0" encoding="utf-8"?>
<!-- Generator: Adobe Illustrator 27.8.1, SVG Export Plug-In . SVG Version: 6.00 Build 0)  -->
<svg version="1.1" id="Calque_1" xmlns="http://www.w3.org/2000/svg" xmlns:xlink="http://www.w3.org/1999/xlink" x="0px" y="0px"
	 viewBox="0 0 828.77 350.18" style="enable-background:new 0 0 828.77 350.18;" xml:space="preserve">
<style type="text/css">
	.st0{fill:#B6CD01;}
	.st1{fill:#FFFFFF;}
	.st2{fill:#232550;}
	.st3{fill:#008367;}
	.st4{fill:none;}
	.st5{fill:none;stroke:#000000;stroke-width:0.1;stroke-miterlimit:10;}
	.st6{opacity:0.4;}
	.st7{fill:#6BB52D;}
	.st8{fill:#494642;}
	.st9{fill:none;stroke:#6BB52D;stroke-width:0.2;stroke-miterlimit:10;}
	.st10{fill:none;stroke:#6BB52D;stroke-width:0.5;stroke-miterlimit:10;}
	.st11{opacity:0.63;}
	.st12{fill:#191A34;}
	.st13{fill:#ED6F1A;}
	.st14{fill:none;stroke:#191A34;stroke-width:0.25;stroke-miterlimit:10;}
	.st15{fill:none;stroke:#191A34;stroke-width:0.5;stroke-miterlimit:10;}
	.st16{opacity:0.48;fill:none;stroke:#FFFFFF;stroke-width:0.25;stroke-miterlimit:10;}
	.st17{fill:none;stroke:#ED6F1A;stroke-width:0.25;stroke-miterlimit:10;}
	.st18{opacity:0.36;fill:none;stroke:#ED6F1A;stroke-width:0.5;stroke-miterlimit:10;}
	.st19{opacity:0.48;fill:none;stroke:#191A34;stroke-width:0.25;stroke-miterlimit:10;}
	.st20{fill:none;stroke:#FFFFFF;stroke-width:0.5;stroke-miterlimit:10;}
</style>
<circle class="st0" cx="1913.62" cy="357.86" r="42.32"/>
<text transform="matrix(1 0 0 1 1788.5345 368.7106)"><tspan x="0" y="0" style="font-family:'Impact'; font-size:33.4475px;">START </tspan><tspan x="89.02" y="0" class="st1" style="font-family:'Impact'; font-size:33.4475px;">H</tspan><tspan x="107.59" y="0" style="font-family:'Impact'; font-size:33.4475px;">ERE</tspan></text>
<path class="st0" d="M1901.82,373.19l-11.88-8.66c-0.48-0.35-1.15-0.01-1.15,0.58l0,14.7c0,0.74,0.78,1.22,1.44,0.88l4.19-4.56
	l2.72,5.34c0.11,0.22,0.33,0.34,0.56,0.34c0.09,0,0.19-0.02,0.28-0.07c0.31-0.16,0.43-0.53,0.27-0.84l-2.74-5.39l6.18-0.66
	C1902.34,374.54,1902.41,373.63,1901.82,373.19z"/>
<path class="st1" d="M1897.69,382.53c-0.5,0-0.96-0.28-1.19-0.73l-2.25-4.43l-3.58,3.9l-0.11,0.06c-0.24,0.12-0.5,0.19-0.77,0.19
	c-0.94,0-1.7-0.76-1.7-1.7l0-14.7c0-0.79,0.64-1.43,1.43-1.43c0.3,0,0.59,0.1,0.84,0.28l11.88,8.66c0.48,0.35,0.74,0.91,0.69,1.51
	c-0.05,0.59-0.39,1.11-0.92,1.38l-0.12,0.06l-5.28,0.56l2.27,4.47c0.16,0.32,0.19,0.68,0.08,1.02c-0.11,0.34-0.35,0.61-0.66,0.78
	C1898.11,382.48,1897.9,382.53,1897.69,382.53z"/>
<path class="st0" d="M1901.82,373.19l-11.88-8.66c-0.48-0.35-1.15-0.01-1.15,0.58l0,14.7c0,0.74,0.78,1.22,1.44,0.88l4.19-4.56
	l2.72,5.34c0.11,0.22,0.33,0.34,0.56,0.34c0.09,0,0.19-0.02,0.28-0.07c0.31-0.16,0.43-0.53,0.27-0.84l-2.74-5.39l6.18-0.66
	C1902.34,374.54,1902.41,373.63,1901.82,373.19z"/>
<path class="st1" d="M1804.57,556.22c-0.21-1.31-0.55-2.42-0.49-3.5c0.03-0.64,0.61-1.63,1.12-1.76c0.53-0.13,1.87,0.68,1.83,0.91
	c-0.24,1.43-0.72,2.84-1.26,4.19C1805.67,556.28,1804.83,556.19,1804.57,556.22z"/>
<g>
	<g>
		<path class="st2" d="M1958.37,501.53c-1.88,0.13-1.68-1.06-1.52-2.38c0.9-7.52,1.73-15.04,2.64-22.56c0.1-0.83,0.4-1.7,0.84-2.4
			c0.84-1.32,2.49-1.82,4.01-1.4c1.53,0.43,2.6,1.67,2.73,3.25c0.05,0.6,0.04,1.21-0.03,1.81c-0.85,7.52-1.73,15.04-2.58,22.57
			c-0.11,0.95-0.14,1.88-1.53,1.64c-0.16-0.03-0.52,0.39-0.59,0.66c-0.15,0.58-0.16,1.19-0.25,1.95c8.97,2.07,15.58,7.13,19.41,15.6
			c2.14,4.75,2.73,9.73,1.89,14.83c-2.17,13.21-13.09,21.87-25.22,22.43c-9.47,0.44-18.66-4.95-21.26-9.99
			c0.33,0.24,0.7,0.44,0.98,0.73c3.15,3.32,6.87,5.75,11.23,7.19c13.26,4.36,27.85-2.91,32.34-16.14
			c4.74-13.97-2.97-29.01-17.1-33.22c-6.59-1.96-12.99-1.24-19.13,1.85c-0.56,0.28-1.14,0.52-1.71,0.77
			c-0.08-0.15-0.17-0.3-0.25-0.44c0.38-0.28,0.74-0.62,1.16-0.84c3.67-2.01,7.63-2.97,11.78-3.17
			C1958.47,504.15,1958.52,504.16,1958.37,501.53z M1961.94,494.75c0.16,0.02,0.31,0.04,0.47,0.05c-0.24,2.04-0.47,4.08-0.7,6.05
			c1.35,0.68,1.76,0.26,1.89-0.9c0.53-4.86,1.11-9.7,1.66-14.56c0.33-2.83,0.68-5.67,0.97-8.5c0.2-1.94-0.86-3.19-2.74-3.35
			c-1.72-0.15-2.85,0.92-3.1,3.03c-0.88,7.47-1.74,14.94-2.6,22.41c-0.2,1.76-0.02,1.93,1.84,1.65c0.65-5.1,1.14-10.24,1.82-15.35
			c0.25,0.03,0.49,0.05,0.74,0.08c-0.47,5.13-1.22,10.25-1.51,15.4C1961.33,498.79,1961.09,496.65,1961.94,494.75z M1961.12,504.46
			c0.66-2.56,0.43-2.9-1.73-2.68c-0.09,0.79-0.18,1.59-0.28,2.45C1959.82,504.3,1960.44,504.38,1961.12,504.46z"/>
		<path class="st2" d="M1943.04,547.95c11.62,7.07,22.22,6.71,31.13-3.81c5.9-6.97,6.19-16.82,1.48-24.5
			c-3.61-5.9-8.89-9.34-15.71-10.28c-6.72-0.92-12.65,1.1-18.01,5.77c0.61-3.4,9.89-7.09,16.04-6.85
			c11.14,0.44,20.42,9.14,21.52,20.18c1.13,11.34-6.07,21.57-17,24.36C1954.61,554.85,1945.43,551.6,1943.04,547.95z"/>
		<path class="st2" d="M1974.54,514.18c-4.27-3.95-9.28-6.37-15.02-7.28C1962.38,505.41,1973.34,510.44,1974.54,514.18z"/>
		<path class="st2" d="M1962.22,554.49c4.49-1.26,8.49-3.34,11.93-6.83C1974.24,550.15,1964.91,555.4,1962.22,554.49z"/>
		<path class="st2" d="M1961.94,494.75c-0.85,1.9-0.62,4.04-1.25,6.01c0.29-5.15,1.04-10.26,1.51-15.4
			c-0.25-0.03-0.49-0.05-0.74-0.08c-0.68,5.11-1.18,10.26-1.82,15.35c-1.86,0.28-2.05,0.12-1.84-1.65
			c0.86-7.47,1.72-14.94,2.6-22.41c0.25-2.11,1.38-3.18,3.1-3.03c1.88,0.16,2.94,1.41,2.74,3.35c-0.29,2.84-0.64,5.67-0.97,8.5
			c-0.56,4.85-1.14,9.7-1.66,14.56c-0.13,1.16-0.54,1.57-1.89,0.9c0.23-1.97,0.46-4.01,0.7-6.05
			C1962.26,494.79,1962.1,494.77,1961.94,494.75z"/>
	</g>
</g>
<g>
	<polyline class="st3" points="1974.49,514.49 1974.49,522.74 1966.32,522.74 	"/>
	<polygon class="st2" points="1974.49,522.74 1974.49,514.49 1966.32,522.74 	"/>
	<polygon class="st0" points="2010.8,522.74 2010.8,515.01 2005.7,522.74 	"/>
	<g>
		<path class="st0" d="M2045.82,548.12h-10.7l-1.15-5.42h-12.28l-1.15,5.42h-10.7l7.68-33.63h20.68L2045.82,548.12z M2023.32,534.64
			h9.02l-2.49-11.9h-3.98L2023.32,534.64z"/>
		<path class="st0" d="M2084.24,529.65c0,1.12-0.23,2.09-0.7,2.93c-0.46,0.83-1.19,1.47-2.18,1.92c1.09,0.42,1.84,1.05,2.25,1.9
			s0.62,1.88,0.62,3.09v8.63h-10.07v-7.82c0-0.54-0.2-1.01-0.6-1.42c-0.4-0.4-0.87-0.6-1.42-0.6h-12.57v9.83h-11.13v-33.63h28.26
			c2.37,0,4.21,0.61,5.54,1.82c1.33,1.22,1.99,2.94,1.99,5.18V529.65z M2059.59,522.74v7.29h12.57c0.54,0,1.02-0.2,1.42-0.6
			c0.4-0.4,0.6-0.87,0.6-1.41v-4.08c0-0.35-0.11-0.64-0.34-0.86c-0.22-0.22-0.51-0.33-0.86-0.33H2059.59z"/>
		<path class="st0" d="M2119.36,522.74h-10.7v25.38h-11.08v-25.38h-10.7v-8.25h32.48V522.74z"/>
		<path class="st4" d="M1952.32,522.96c-0.16,0.14-0.24,0.33-0.24,0.55v2.88c0,0.22,0.08,0.41,0.24,0.55
			c0.16,0.14,0.34,0.22,0.53,0.22h9.1l4.37-4.41h-13.47C1952.66,522.74,1952.48,522.81,1952.32,522.96z"/>
		<path class="st0" d="M1952.85,527.16c-0.19,0-0.37-0.07-0.53-0.22c-0.16-0.14-0.24-0.33-0.24-0.55v-2.88
			c0-0.22,0.08-0.41,0.24-0.55c0.16-0.14,0.34-0.22,0.53-0.22h13.47l8.17-8.25h-26.58c-2.11,0-3.76,0.62-4.94,1.87
			c-1.18,1.25-1.77,2.81-1.77,4.7v7.77c0,1.89,0.59,3.45,1.77,4.7c1.18,1.25,2.83,1.87,4.94,1.87h5.87l8.17-8.25H1952.85z"/>
		<polygon class="st0" points="1941.2,539.87 1941.2,548.12 1949.36,539.87 		"/>
		<path class="st3" d="M1961.95,527.16h5.82c2.11,0,3.76,0.62,4.94,1.87c1.18,1.25,1.77,2.83,1.77,4.75v7.77
			c0,1.89-0.59,3.45-1.77,4.7c-1.18,1.25-2.83,1.87-4.94,1.87h-26.58"/>
		<path class="st1" d="M1963.36,539.65c0.16-0.14,0.24-0.34,0.24-0.6v-2.83c0-0.22-0.08-0.42-0.24-0.58
			c-0.16-0.16-0.34-0.24-0.53-0.24h-9.05l-4.42,4.46h13.47C1963.02,539.87,1963.2,539.79,1963.36,539.65z"/>
		<path class="st2" d="M1972.71,546.25c1.18-1.25,1.77-2.81,1.77-4.7v-7.77c0-1.92-0.59-3.5-1.77-4.75
			c-1.18-1.25-2.83-1.87-4.94-1.87h-5.82l-8.17,8.25h9.05c0.19,0,0.37,0.08,0.53,0.24c0.16,0.16,0.24,0.35,0.24,0.58v2.83
			c0,0.26-0.08,0.46-0.24,0.6c-0.16,0.14-0.34,0.22-0.53,0.22h-13.47l-8.17,8.25h26.58
			C1969.88,548.12,1971.53,547.49,1972.71,546.25z"/>
		<line class="st5" x1="1975.05" y1="513.85" x2="1939.02" y2="550.3"/>
		<polygon class="st0" points="1978.32,514.49 1978.32,522.74 1989.02,522.74 1989.02,548 2000.1,531.21 2000.1,522.74 
			2005.7,522.74 2010.8,515.01 2010.8,514.49 		"/>
		<polygon class="st0" points="2000.1,548.12 2000.1,531.21 1989.02,548 1989.02,548.12 		"/>
		<g>
		</g>
	</g>
</g>
<text transform="matrix(1 0 0 1 2033.9265 556.8024)" class="st2" style="font-family:'MightyBeast'; font-size:70.4673px;">Here</text>
<text transform="matrix(1 0 0 1 1635.5602 545.778)" class="st8" style="font-family:'Impact'; font-size:55.7341px;">THIS      NE</text>
<g>
	<g class="st6">
		
			<ellipse transform="matrix(0.7071 -0.7071 0.7071 0.7071 148.9581 1405.7743)" class="st7" cx="1771.4" cy="523.08" rx="26.43" ry="26.43"/>
	</g>
	<g>
		
			<ellipse transform="matrix(0.7071 -0.7071 0.7071 0.7071 148.9581 1405.7743)" class="st7" cx="1771.4" cy="523.08" rx="26.43" ry="26.43"/>
		<path class="st1" d="M1771.4,550.07c-14.88,0-26.99-12.11-26.99-26.99c0-14.88,12.11-26.99,26.99-26.99
			c14.88,0,26.99,12.11,26.99,26.99C1798.39,537.96,1786.28,550.07,1771.4,550.07z M1771.4,497.2c-14.27,0-25.88,11.61-25.88,25.88
			c0,14.27,11.61,25.88,25.88,25.88c14.27,0,25.88-11.61,25.88-25.88C1797.28,508.81,1785.67,497.2,1771.4,497.2z"/>
	</g>
	<g>
		<path class="st8" d="M1768.69,552.64c-12.59,0-23.63-8.92-26.26-21.22c-0.05-0.23,0.1-0.45,0.32-0.5c0.22-0.05,0.45,0.1,0.5,0.32
			c2.54,11.91,13.24,20.56,25.44,20.56c2.75,0,5.47-0.43,8.06-1.27c0.22-0.07,0.45,0.05,0.53,0.27c0.07,0.22-0.05,0.45-0.27,0.53
			C1774.33,552.2,1771.53,552.64,1768.69,552.64z M1786.39,545.84c-0.11,0-0.23-0.05-0.31-0.14c-0.15-0.17-0.14-0.43,0.03-0.59
			c5.46-4.93,8.6-11.97,8.6-19.32l0-0.11c0-0.23,0.18-0.42,0.41-0.42c0,0,0,0,0,0c0.23,0,0.42,0.18,0.42,0.41l0,0.11
			c0,7.59-3.23,14.86-8.87,19.94C1786.59,545.81,1786.49,545.84,1786.39,545.84z M1742.25,526.23c-0.23,0-0.42-0.16-0.42-0.39v-0.05
			c0-7.57,3.22-14.82,8.83-19.91c0.17-0.15,0.43-0.14,0.59,0.03c0.15,0.17,0.14,0.43-0.03,0.59c-5.44,4.93-8.56,11.96-8.56,19.29
			C1742.67,526.02,1742.48,526.23,1742.25,526.23z M1794.53,520.61c-0.19,0-0.37-0.13-0.41-0.33c-2.56-11.88-13.26-20.5-25.43-20.5
			c-2.77,0-5.5,0.43-8.11,1.29c-0.22,0.07-0.45-0.05-0.53-0.27c-0.07-0.22,0.05-0.45,0.27-0.53c2.69-0.88,5.51-1.33,8.37-1.33
			c12.56,0,23.6,8.9,26.25,21.16c0.05,0.23-0.09,0.45-0.32,0.5C1794.58,520.6,1794.56,520.61,1794.53,520.61z"/>
	</g>
	<g>
		<g>
			<polygon class="st1" points="1765.88,537.36 1754.62,526.1 1758.67,522.05 1765.88,529.26 1784.09,511.05 1788.14,515.1 			"/>
			<path class="st1" d="M1765.88,538.32l-12.22-12.22l5.01-5.01l7.21,7.21l18.21-18.21l5.01,5.01L1765.88,538.32z M1755.58,526.1
				l10.3,10.3l21.3-21.3l-3.09-3.09l-18.21,18.21l-7.21-7.21L1755.58,526.1z"/>
		</g>
	</g>
</g>
<line class="st9" x1="1707.65" y1="558.75" x2="1848.38" y2="558.75"/>
<g>
	
		<text transform="matrix(1 0 0 1 1642.3239 559.1813)" class="st8" style="font-family:'YuGothicUI-Semilight'; font-size:8.1881px;">CV, JOB, CAREER</text>
</g>
<path class="st1" d="M1258.58,1102.52c-0.42-2.61-1.1-4.8-0.98-6.94c0.07-1.27,1.21-3.24,2.22-3.48c1.06-0.26,3.71,1.35,3.63,1.8
	c-0.49,2.84-1.42,5.63-2.51,8.32C1260.77,1102.64,1259.1,1102.47,1258.58,1102.52z"/>
<text transform="matrix(1 0 0 1 923.069 1081.7955)" class="st8" style="font-family:'Impact'; font-size:110.6421px;">THIS      NE</text>
<g>
	<g class="st6">
		
			<ellipse transform="matrix(0.7071 -0.7071 0.7071 0.7071 -383.7376 1147.0413)" class="st7" cx="1192.73" cy="1036.73" rx="52.47" ry="52.47"/>
	</g>
	<g>
		
			<ellipse transform="matrix(0.7071 -0.7071 0.7071 0.7071 -383.7376 1147.0413)" class="st7" cx="1192.73" cy="1036.73" rx="52.47" ry="52.47"/>
		<path class="st1" d="M1192.73,1090.31c-29.54,0-53.58-24.04-53.58-53.58c0-29.54,24.04-53.58,53.58-53.58s53.58,24.04,53.58,53.58
			C1246.31,1066.28,1222.28,1090.31,1192.73,1090.31z M1192.73,985.36c-28.33,0-51.37,23.04-51.37,51.37
			c0,28.33,23.04,51.37,51.37,51.37c28.33,0,51.37-23.04,51.37-51.37C1244.1,1008.41,1221.06,985.36,1192.73,985.36z"/>
	</g>
	<g>
		<path class="st8" d="M1187.35,1095.42c-24.99,0-46.92-17.71-52.13-42.12c-0.1-0.45,0.19-0.89,0.64-0.98
			c0.44-0.09,0.89,0.19,0.98,0.64c5.05,23.65,26.29,40.81,50.51,40.81c5.47,0,10.85-0.85,16-2.53c0.44-0.14,0.9,0.1,1.04,0.53
			c0.14,0.44-0.1,0.9-0.53,1.04C1198.55,1094.54,1192.99,1095.42,1187.35,1095.42z M1222.48,1081.92c-0.23,0-0.45-0.09-0.62-0.27
			c-0.31-0.34-0.28-0.86,0.06-1.17c10.85-9.78,17.07-23.77,17.07-38.36l0-0.21c0-0.46,0.36-0.83,0.82-0.83c0,0,0,0,0.01,0
			c0.45,0,0.82,0.37,0.83,0.82l0,0.22c0,15.07-6.42,29.5-17.61,39.59C1222.88,1081.85,1222.68,1081.92,1222.48,1081.92z
			 M1134.88,1043c-0.46,0-0.83-0.32-0.83-0.77v-0.11c0-15.02,6.39-29.43,17.53-39.52c0.34-0.31,0.86-0.28,1.17,0.06
			c0.31,0.34,0.28,0.86-0.06,1.17c-10.8,9.78-16.99,23.73-16.99,38.29C1135.7,1042.57,1135.33,1043,1134.88,1043z M1238.64,1031.83
			c-0.38,0-0.72-0.27-0.81-0.65c-5.09-23.58-26.32-40.7-50.49-40.7c-5.51,0-10.92,0.86-16.11,2.56c-0.44,0.14-0.9-0.09-1.05-0.53
			c-0.14-0.44,0.09-0.9,0.53-1.05c5.35-1.75,10.94-2.64,16.62-2.64c24.94,0,46.85,17.67,52.1,42.01c0.1,0.45-0.19,0.89-0.63,0.98
			C1238.76,1031.82,1238.7,1031.83,1238.64,1031.83z"/>
	</g>
	<g>
		<g>
			<polygon class="st1" points="1181.78,1065.09 1159.42,1042.73 1167.46,1034.69 1181.78,1049 1217.93,1012.85 1225.97,1020.89 			
				"/>
			<path class="st1" d="M1181.78,1067l-24.26-24.26l9.95-9.95l14.31,14.31l36.15-36.15l9.95,9.95L1181.78,1067z M1161.33,1042.73
				l20.45,20.45l42.29-42.29l-6.14-6.14l-36.15,36.15l-14.31-14.31L1161.33,1042.73z"/>
		</g>
	</g>
</g>
<line class="st10" x1="1066.17" y1="1107.56" x2="1345.55" y2="1107.56"/>
<g>
	
		<text transform="matrix(1 0 0 1 936.4957 1108.4039)" class="st8" style="font-family:'YuGothicUI-Semilight'; font-size:16.2549px;">CV, JOB, CAREER</text>
</g>
<g>
	<path id="SVGID_x5F_1_x5F_" class="st4" d="M1969.67,513.43c9.67,7.15,11.71,20.78,4.56,30.45c-7.15,9.67-20.78,11.71-30.45,4.56
		c-9.67-7.15-11.71-20.78-4.56-30.45C1946.37,508.32,1960.01,506.28,1969.67,513.43z"/>
	<text>	<textPath  xlink:href="#SVGID_x5F_1_x5F_" startOffset="72.0053%">
<tspan  class="st2" style="font-family:'YuGothicUI-Semilight'; font-size:4.8541px; letter-spacing:-28;">CV, JOB, CAREER</tspan>	</textPath>
</text>
</g>
<path class="st2" d="M1959.12,487.51"/>
<g class="st11">
	<path class="st7" d="M1790.85,652.07c-1.85,0.13-1.65-1.04-1.49-2.35c0.89-7.4,1.71-14.81,2.6-22.21c0.1-0.81,0.39-1.67,0.83-2.36
		c0.82-1.3,2.45-1.79,3.95-1.38c1.51,0.42,2.56,1.64,2.69,3.2c0.05,0.59,0.04,1.19-0.03,1.78c-0.84,7.41-1.7,14.81-2.54,22.21
		c-0.11,0.93-0.14,1.85-1.51,1.61c-0.16-0.03-0.51,0.39-0.58,0.65c-0.14,0.57-0.16,1.17-0.25,1.92c8.83,2.04,15.34,7.02,19.1,15.36
		c2.11,4.67,2.68,9.58,1.86,14.6c-2.13,13.01-12.89,21.53-24.83,22.08c-9.32,0.43-18.37-4.87-20.93-9.84
		c0.32,0.24,0.69,0.43,0.96,0.71c3.1,3.27,6.76,5.66,11.06,7.08c13.06,4.3,27.41-2.86,31.83-15.89c4.67-13.75-2.92-28.56-16.84-32.7
		c-6.49-1.93-12.79-1.22-18.83,1.82c-0.55,0.28-1.12,0.51-1.69,0.76c-0.08-0.15-0.16-0.29-0.25-0.44c0.38-0.28,0.73-0.61,1.14-0.83
		c3.61-1.98,7.51-2.93,11.6-3.12C1790.95,654.65,1791,654.66,1790.85,652.07z M1794.37,645.39c0.15,0.02,0.31,0.04,0.46,0.05
		c-0.23,2.01-0.46,4.02-0.69,5.96c1.33,0.66,1.74,0.26,1.86-0.89c0.52-4.78,1.09-9.55,1.64-14.33c0.32-2.79,0.67-5.58,0.95-8.37
		c0.2-1.91-0.85-3.14-2.7-3.3c-1.69-0.15-2.81,0.91-3.06,2.99c-0.87,7.35-1.71,14.71-2.56,22.06c-0.2,1.73-0.02,1.9,1.82,1.62
		c0.64-5.02,1.12-10.08,1.8-15.12c0.24,0.03,0.49,0.05,0.73,0.08c-0.47,5.05-1.2,10.09-1.49,15.16
		C1793.77,649.37,1793.53,647.26,1794.37,645.39z M1793.56,654.94c0.65-2.52,0.42-2.85-1.7-2.64c-0.09,0.78-0.18,1.56-0.28,2.41
		C1792.28,654.8,1792.89,654.87,1793.56,654.94z"/>
	<path class="st7" d="M1775.76,697.76c11.44,6.96,21.87,6.61,30.64-3.75c5.81-6.86,6.09-16.56,1.46-24.12
		c-3.56-5.8-8.75-9.2-15.46-10.12c-6.62-0.91-12.46,1.08-17.73,5.68c0.6-3.35,9.74-6.98,15.79-6.74c10.97,0.44,20.1,9,21.18,19.87
		c1.12,11.16-5.98,21.23-16.73,23.98C1787.15,704.56,1778.11,701.36,1775.76,697.76z"/>
	<path class="st7" d="M1806.77,664.51c-4.21-3.89-9.13-6.27-14.79-7.16C1794.8,655.89,1805.59,660.84,1806.77,664.51z"/>
	<path class="st7" d="M1794.64,704.2c4.42-1.24,8.36-3.29,11.74-6.72C1806.47,699.92,1797.29,705.09,1794.64,704.2z"/>
	<path class="st7" d="M1794.37,645.39c-0.84,1.87-0.61,3.98-1.23,5.92c0.28-5.07,1.02-10.1,1.49-15.16
		c-0.24-0.03-0.49-0.05-0.73-0.08c-0.67,5.03-1.16,10.1-1.8,15.12c-1.83,0.28-2.02,0.11-1.82-1.62c0.85-7.35,1.69-14.71,2.56-22.06
		c0.25-2.08,1.36-3.13,3.06-2.99c1.85,0.16,2.89,1.39,2.7,3.3c-0.29,2.79-0.63,5.58-0.95,8.37c-0.55,4.78-1.12,9.55-1.64,14.33
		c-0.12,1.14-0.53,1.55-1.86,0.89c0.22-1.94,0.46-3.95,0.69-5.96C1794.68,645.43,1794.53,645.41,1794.37,645.39z"/>
</g>
<polyline class="st3" points="1809.27,662.87 1809.27,671.13 1801.1,671.13 "/>
<polygon class="st7" points="1809.27,671.13 1809.27,662.87 1801.1,671.13 "/>
<polygon class="st7" points="1845.58,671.13 1845.58,663.4 1840.48,671.13 "/>
<g>
	<g>
		<g>
			<g>
				<path class="st12" d="M1880.6,696.5h-10.7l-1.15-5.42h-12.28l-1.15,5.42h-10.7l7.68-33.63h20.68L1880.6,696.5z M1858.1,683.02
					h9.02l-2.49-11.9h-3.98L1858.1,683.02z"/>
			</g>
		</g>
		<g>
			<g>
				<path class="st12" d="M1919.03,678.03c0,1.12-0.23,2.09-0.7,2.93c-0.46,0.83-1.19,1.47-2.18,1.92c1.09,0.42,1.84,1.05,2.25,1.9
					s0.62,1.88,0.62,3.09v8.63h-10.07v-7.82c0-0.54-0.2-1.01-0.6-1.42c-0.4-0.4-0.87-0.6-1.42-0.6h-12.57v9.83h-11.13v-33.63h28.26
					c2.37,0,4.21,0.61,5.54,1.82c1.33,1.22,1.99,2.94,1.99,5.18V678.03z M1894.37,671.13v7.29h12.57c0.54,0,1.02-0.2,1.42-0.6
					c0.4-0.4,0.6-0.87,0.6-1.41v-4.08c0-0.35-0.11-0.64-0.34-0.86c-0.22-0.22-0.51-0.33-0.86-0.33H1894.37z"/>
			</g>
		</g>
		<g>
			<g>
				<path class="st12" d="M1954.14,671.13h-10.7v25.38h-11.08v-25.38h-10.7v-8.25h32.48V671.13z"/>
			</g>
		</g>
		<g>
			<path class="st12" d="M1787.64,675.54c-0.19,0-0.37-0.07-0.53-0.22c-0.16-0.14-0.24-0.33-0.24-0.55v-2.88
				c0-0.22,0.08-0.41,0.24-0.55c0.16-0.14,0.34-0.22,0.53-0.22h13.47l8.17-8.25h-26.58c-2.11,0-3.76,0.62-4.94,1.87
				c-1.18,1.25-1.77,2.81-1.77,4.7v7.77c0,1.89,0.59,3.45,1.77,4.7c1.18,1.25,2.83,1.87,4.94,1.87h5.87l8.17-8.25H1787.64z"/>
		</g>
		<g>
			<polygon class="st12" points="1775.98,688.25 1775.98,696.5 1784.15,688.25 			"/>
		</g>
		<path class="st7" d="M1807.5,694.63c1.18-1.25,1.77-2.81,1.77-4.7v-7.77c0-1.92-0.59-3.5-1.77-4.75
			c-1.18-1.25-2.83-1.87-4.94-1.87h-5.82l-8.17,8.25h9.05c0.19,0,0.37,0.08,0.53,0.24c0.16,0.16,0.24,0.35,0.24,0.58v2.83
			c0,0.26-0.08,0.46-0.24,0.6c-0.16,0.14-0.34,0.22-0.53,0.22h-13.47l-8.17,8.25h26.58C1804.67,696.5,1806.31,695.88,1807.5,694.63z
			"/>
		<line class="st12" x1="1809.83" y1="662.23" x2="1773.81" y2="698.68"/>
		<g>
			<polygon class="st12" points="1813.11,662.87 1813.11,671.13 1823.81,671.13 1823.81,696.38 1834.89,679.6 1834.89,671.13 
				1840.48,671.13 1845.58,663.4 1845.58,662.87 			"/>
		</g>
		<g>
			<polygon class="st12" points="1834.89,696.5 1834.89,679.6 1823.81,696.38 1823.81,696.5 			"/>
		</g>
	</g>
</g>
<text transform="matrix(1 0 0 1 1823.8054 690.5283)" class="st7" style="font-family:'Microsport-Bold'; font-size:29.2065px;">Here</text>
<g>
	<path id="SVGID_x5F_00000167365350145493482790000009278722242479502247_x5F_" class="st4" d="M1801.98,663.78
		c9.52,7.04,11.53,20.46,4.49,29.98c-7.04,9.52-20.46,11.53-29.98,4.49c-9.52-7.04-11.53-20.46-4.49-29.98
		C1779.04,658.75,1792.46,656.74,1801.98,663.78z"/>
	<text>	<textPath  xlink:href="#SVGID_x5F_00000167365350145493482790000009278722242479502247_x5F_" startOffset="72.0053%">
<tspan  class="st8" style="font-family:'YuGothicUI-Semilight'; font-size:4.7785px; letter-spacing:-28;">CV, JOB, CAREER</tspan>	</textPath>
</text>
</g>
<path class="st2" d="M1793.9,635.9"/>
<g>
</g>
<path class="st2" d="M1792.39,739.39"/>
<g>
	<text transform="matrix(1 0 0 1 1834.8866 707.2088)" class="st12" style="font-family:'Suifak'; font-size:6px;">CV, JOB, CAREER</text>
</g>
<polyline class="st3" points="168.61,154.28 168.61,171.15 151.9,171.15 "/>
<polygon class="st13" points="168.61,171.15 168.61,154.28 151.9,171.15 "/>
<path class="st12" d="M314.46,223.04h-21.87l-2.35-11.08h-25.11l-2.35,11.08H240.9l15.69-68.76h42.28L314.46,223.04z M268.46,195.48
	h18.44l-5.1-24.33h-8.14L268.46,195.48z"/>
<path class="st12" d="M393.04,185.27c0,2.29-0.48,4.28-1.43,5.98c-0.95,1.7-2.44,3.01-4.46,3.92c2.22,0.85,3.76,2.14,4.61,3.88
	s1.28,3.84,1.28,6.33v17.66h-20.6v-15.99c0-1.11-0.41-2.07-1.23-2.89c-0.82-0.82-1.79-1.23-2.9-1.23h-25.7v20.11h-22.76v-68.76
	h57.78c4.84,0,8.61,1.24,11.33,3.73c2.72,2.49,4.07,6.02,4.07,10.59V185.27z M342.62,171.15v14.91h25.7c1.11,0,2.08-0.41,2.9-1.23
	c0.81-0.82,1.23-1.78,1.23-2.89v-8.34c0-0.72-0.23-1.31-0.69-1.77c-0.46-0.46-1.05-0.68-1.77-0.68H342.62z"/>
<path class="st12" d="M464.84,171.15h-21.87v51.89H420.3v-51.89h-21.87v-16.87h66.41V171.15z"/>
<path class="st12" d="M124.37,180.17c-0.39,0-0.75-0.15-1.08-0.44c-0.33-0.3-0.49-0.67-0.49-1.13v-5.88c0-0.46,0.16-0.83,0.49-1.13
	c0.33-0.3,0.69-0.44,1.08-0.44h27.53l16.7-16.87h-54.34c-4.32,0-7.69,1.28-10.1,3.83c-2.42,2.55-3.63,5.76-3.63,9.61v15.89
	c0,3.86,1.21,7.06,3.63,9.61c2.42,2.55,5.79,3.83,10.1,3.83h12l16.7-16.87H124.37z"/>
<polygon class="st12" points="100.62,206.18 100.62,223.15 117.42,206.18 "/>
<path class="st13" d="M164.98,219.21c2.42-2.55,3.63-5.75,3.63-9.61v-15.89c0-3.92-1.21-7.16-3.63-9.71
	c-2.42-2.55-5.79-3.83-10.1-3.83h-11.91l-16.7,16.87h18.5c0.39,0,0.75,0.16,1.08,0.49c0.33,0.33,0.49,0.72,0.49,1.18v5.79
	c0,0.52-0.16,0.93-0.49,1.23c-0.33,0.29-0.69,0.44-1.08,0.44h-27.54l-16.7,16.87h54.34C159.19,223.04,162.56,221.76,164.98,219.21z"
	/>
<line class="st14" x1="192.07" y1="130.85" x2="84.2" y2="239.41"/>
<line class="st14" x1="84.2" y1="130.85" x2="192.07" y2="239.41"/>
<g>
	<path class="st13" d="M548.21,222.41h-22.74v-25.53h-28.03v25.53h-22.74v-67.53h22.74v25.43h28.03v-25.43h22.74V222.41z"/>
	<path class="st13" d="M617.77,171.45h-39.5v8.86h35.36v16.57h-35.36v8.96h39.5v16.57h-61.85v-67.53h61.85V171.45z"/>
	<path class="st13" d="M697.34,185.32c0,2.25-0.47,4.21-1.4,5.88c-0.93,1.67-2.39,2.96-4.38,3.85c2.18,0.83,3.69,2.1,4.53,3.8
		c0.83,1.7,1.25,3.77,1.25,6.21v17.34h-20.23v-15.7c0-1.09-0.4-2.04-1.2-2.84c-0.8-0.8-1.75-1.2-2.84-1.2h-25.72v19.75h-21.87
		v-67.53h56.74c4.75,0,8.46,1.22,11.13,3.66c2.66,2.44,4,5.91,4,10.4V185.32z M647.34,171.45v14.64h25.72c1.09,0,2.04-0.4,2.84-1.2
		c0.8-0.8,1.2-1.75,1.2-2.84v-8.19c0-0.83-0.4-1.45-1.2-1.83c-0.8-0.39-1.75-0.58-2.84-0.58H647.34z"/>
	<path class="st13" d="M766.89,171.45h-39.5v8.86h35.36v16.57h-35.36v8.96h39.5v16.57h-61.85v-67.53h61.85V171.45z"/>
</g>
<g>
	<g>
		<path class="st12" d="M690.32,246.57c0.19,0.02,0.36,0.02,0.53,0.02c2.07,0,3.14-1.25,3.14-1.25c-1.11,1.84-3.06,2.88-5.51,2.88
			c-3.87,0-6.5-2.56-6.5-6.75c0-4.17,2.54-6.5,6.3-6.57h5.08v4.46c0,0-2.67-3.17-3.82-3.79c-0.19-0.1-0.34-0.14-0.55-0.14
			c-1.17,0.02-2.73,1.76-2.73,5.01c0,0.33,0.02,0.67,0.06,1.04C686.66,244.93,688.67,246.42,690.32,246.57z"/>
		<path class="st12" d="M705.68,234.89c-0.75,0.92-1.39,3.6-1.54,4.13l-0.17,0.65l-0.24,0.98l-1.9,7.32h-4.3l-3.03-11.72
			c-0.13-0.53-0.43-1-0.83-1.35h5.45c-0.24,0.25-0.39,0.59-0.39,0.92c0,0.14,0.02,0.25,0.06,0.37l2.78,10.72l2.11-8.12
			c0.06-0.2,0.08-0.39,0.08-0.61c0-1.04-0.56-2.27-1.17-3.29H705.68z"/>
		<path class="st12" d="M722.95,247.96h-5.45c0.41-0.33,0.66-0.86,0.66-1.41v-10.64l-1.37,2.43l-2.39,4.26l-0.3-0.53l-2.9-5.11v5.83
			c0,2.05,0.92,3.85,1.92,5.16h-3.08c0.41-0.68,0.66-1.66,0.66-3.07v-7.49c0-0.88-0.23-1.74-0.66-2.5h4.81l1.64,2.92l1.65-2.92h4.81
			c-0.4,0.33-0.64,0.86-0.64,1.41v10.25c0,0.27,0.06,0.55,0.17,0.78C722.59,247.59,722.76,247.81,722.95,247.96z"/>
		<path class="st12" d="M729.14,247.96c0.26-0.25,0.39-0.61,0.39-0.96c0-0.12-0.02-0.21-0.04-0.33l-0.68-2.58h-3.72
			c-0.04,0.18-0.06,0.37-0.06,0.57c0,1.04,0.56,2.29,1.17,3.31h-3.12c0.49-0.86,1.28-2.97,1.54-4.11l1.8-6.94
			c0.08-0.27,0.09-0.55,0.09-0.82c0-0.39-0.08-0.8-0.23-1.19h4.44l3.05,11.74c0.13,0.51,0.41,0.98,0.81,1.33H729.14z M728.69,243.54
			l-1.73-6.61l-1.71,6.61H728.69z"/>
		<path class="st12" d="M742.11,247.96c0.21-0.2,0.3-0.47,0.3-0.74c0-0.16-0.04-0.31-0.11-0.47l-2.76-5.38v5.18
			c0,0.55,0.24,1.08,0.66,1.41h-5.45c0.41-0.33,0.66-0.86,0.66-1.41V236.3c0-0.55-0.24-1.08-0.66-1.41h5.45
			c-0.41,0.33-0.66,0.86-0.66,1.41v4.34l3.18-2.99c0.41-0.39,0.56-0.78,0.56-1.27c0-0.41-0.09-0.88-0.23-1.49h3.8
			c0,0-0.96,0.45-2.22,1.6l-0.62,0.61c-0.06,0.04-1.32,1.23-1.32,1.23l4.25,8.29c0.26,0.53,0.64,0.98,1.11,1.33H742.11z"/>
		<path class="st12" d="M752.99,235.44v4.87h0.02c0.6,0,1.2-0.18,1.71-0.49l2.07-1.27v4.07l-2.07-1.27
			c-0.51-0.33-1.11-0.49-1.71-0.49h-0.02v6.57h0.04c0.49,0,0.94-0.16,1.33-0.43l3.63-2.54v3.5h-9.79c0.41-0.33,0.66-0.84,0.66-1.41
			V236.3c0-0.27-0.08-0.55-0.19-0.78c-0.11-0.23-0.26-0.45-0.47-0.63h9.79v3.5l-3.63-2.54c-0.4-0.27-0.85-0.41-1.33-0.41H752.99z"/>
		<path class="st12" d="M765.3,247.96c0.43-0.37,0.66-0.84,0.66-1.41v-1.84c0-0.67-0.13-1.15-0.41-1.45
			c-0.45-0.49-0.96-0.72-1.56-0.72h-0.75v4.01c0,0.61,0.21,1.08,0.64,1.41h-5.45c0.43-0.37,0.66-0.84,0.66-1.41V236.3
			c0-0.57-0.23-1.04-0.66-1.41h7.12c1.18,0,2.11,0.18,2.8,0.51c0.7,0.35,1.18,0.82,1.48,1.39c0.28,0.59,0.43,1.23,0.43,1.94
			c0,0.65-0.17,1.23-0.53,1.78c-0.36,0.57-0.86,1.02-1.56,1.35c-0.7,0.35-1.52,0.53-2.5,0.53c1.05,0,1.99,0.2,2.8,0.57
			c1.09,0.51,1.64,1.37,1.64,2.54v1.06c0,0.61,0.21,1.08,0.64,1.41H765.3z M765.24,241.51c0.32-0.33,0.55-0.76,0.68-1.27
			c0.13-0.49,0.19-1,0.19-1.51c0-2.21-0.71-3.31-2.16-3.31h-0.71v6.59h0.71C764.49,242.01,764.92,241.84,765.24,241.51z"/>
	</g>
</g>
<circle class="st15" cx="137.46" cy="184.61" r="76.92"/>
<circle class="st14" cx="137.46" cy="184.61" r="57.47"/>
<polyline class="st3" points="168.61,560.75 168.61,577.62 151.9,577.62 "/>
<polygon class="st13" points="168.61,577.62 168.61,560.75 151.9,577.62 "/>
<path class="st1" d="M314.46,629.51h-21.87l-2.35-11.08h-25.11l-2.35,11.08H240.9l15.69-68.76h42.28L314.46,629.51z M268.46,601.94
	h18.44l-5.1-24.33h-8.14L268.46,601.94z"/>
<path class="st1" d="M393.04,591.74c0,2.29-0.48,4.28-1.43,5.98c-0.95,1.7-2.44,3.01-4.46,3.92c2.22,0.85,3.76,2.14,4.61,3.88
	c0.85,1.73,1.28,3.84,1.28,6.33v17.66h-20.6v-15.99c0-1.11-0.41-2.07-1.23-2.89c-0.82-0.82-1.79-1.23-2.9-1.23h-25.7v20.11h-22.76
	v-68.76h57.78c4.84,0,8.61,1.24,11.33,3.73c2.72,2.49,4.07,6.02,4.07,10.59V591.74z M342.62,577.62v14.91h25.7
	c1.11,0,2.08-0.41,2.9-1.23c0.81-0.82,1.23-1.78,1.23-2.89v-8.34c0-0.72-0.23-1.31-0.69-1.77c-0.46-0.46-1.05-0.68-1.77-0.68H342.62
	z"/>
<path class="st1" d="M464.84,577.62h-21.87v51.89H420.3v-51.89h-21.87v-16.87h66.41V577.62z"/>
<path class="st1" d="M124.37,586.64c-0.39,0-0.75-0.15-1.08-0.44c-0.33-0.3-0.49-0.67-0.49-1.13v-5.88c0-0.46,0.16-0.83,0.49-1.13
	c0.33-0.3,0.69-0.44,1.08-0.44h27.53l16.7-16.87h-54.34c-4.32,0-7.69,1.28-10.1,3.83c-2.42,2.55-3.63,5.76-3.63,9.61v15.89
	c0,3.86,1.21,7.06,3.63,9.61c2.42,2.55,5.79,3.83,10.1,3.83h12l16.7-16.87H124.37z"/>
<polygon class="st1" points="100.62,612.65 100.62,629.62 117.42,612.65 "/>
<path class="st13" d="M164.98,625.68c2.42-2.55,3.63-5.75,3.63-9.61v-15.89c0-3.92-1.21-7.16-3.63-9.71
	c-2.42-2.55-5.79-3.83-10.1-3.83h-11.91l-16.7,16.87h18.5c0.39,0,0.75,0.16,1.08,0.49c0.33,0.33,0.49,0.72,0.49,1.18v5.79
	c0,0.52-0.16,0.93-0.49,1.23c-0.33,0.29-0.69,0.44-1.08,0.44h-27.54l-16.7,16.87h54.34C159.19,629.51,162.56,628.23,164.98,625.68z"
	/>
<line class="st16" x1="192.07" y1="537.32" x2="84.2" y2="645.88"/>
<line class="st16" x1="84.2" y1="537.32" x2="192.07" y2="645.88"/>
<polygon class="st1" points="220.98,629.51 220.98,594.94 198.33,629.26 198.33,629.51 "/>
<g>
	<path class="st13" d="M548.21,628.88h-22.74v-25.53h-28.03v25.53h-22.74v-67.53h22.74v25.43h28.03v-25.43h22.74V628.88z"/>
	<path class="st13" d="M617.77,577.92h-39.5v8.86h35.36v16.57h-35.36v8.96h39.5v16.57h-61.85v-67.53h61.85V577.92z"/>
	<path class="st13" d="M697.34,591.79c0,2.25-0.47,4.21-1.4,5.88c-0.93,1.67-2.39,2.96-4.38,3.85c2.18,0.83,3.69,2.1,4.53,3.8
		c0.83,1.7,1.25,3.77,1.25,6.21v17.34h-20.23v-15.7c0-1.09-0.4-2.04-1.2-2.84c-0.8-0.8-1.75-1.2-2.84-1.2h-25.72v19.75h-21.87
		v-67.53h56.74c4.75,0,8.46,1.22,11.13,3.66c2.66,2.44,4,5.91,4,10.4V591.79z M647.34,577.92v14.64h25.72c1.09,0,2.04-0.4,2.84-1.2
		c0.8-0.8,1.2-1.75,1.2-2.84v-8.19c0-0.83-0.4-1.45-1.2-1.83c-0.8-0.39-1.75-0.58-2.84-0.58H647.34z"/>
	<path class="st13" d="M766.89,577.92h-39.5v8.86h35.36v16.57h-35.36v8.96h39.5v16.57h-61.85v-67.53h61.85V577.92z"/>
</g>
<g>
	<path class="st1" d="M690.32,653.04c0.19,0.02,0.36,0.02,0.53,0.02c2.07,0,3.14-1.25,3.14-1.25c-1.11,1.84-3.06,2.88-5.51,2.88
		c-3.87,0-6.5-2.56-6.5-6.75c0-4.17,2.54-6.5,6.3-6.57h5.08v4.46c0,0-2.67-3.17-3.82-3.79c-0.19-0.1-0.34-0.14-0.55-0.14
		c-1.17,0.02-2.73,1.76-2.73,5.01c0,0.33,0.02,0.67,0.06,1.04C686.66,651.4,688.67,652.88,690.32,653.04z"/>
	<path class="st1" d="M705.68,641.36c-0.75,0.92-1.39,3.6-1.54,4.13l-0.17,0.65l-0.24,0.98l-1.9,7.32h-4.3l-3.03-11.72
		c-0.13-0.53-0.43-1-0.83-1.35h5.45c-0.24,0.25-0.39,0.59-0.39,0.92c0,0.14,0.02,0.25,0.06,0.37l2.78,10.72l2.11-8.12
		c0.06-0.2,0.08-0.39,0.08-0.61c0-1.04-0.56-2.27-1.17-3.29H705.68z"/>
	<path class="st1" d="M722.95,654.43h-5.45c0.41-0.33,0.66-0.86,0.66-1.41v-10.64l-1.37,2.43l-2.39,4.26l-0.3-0.53l-2.9-5.11v5.83
		c0,2.05,0.92,3.85,1.92,5.16h-3.08c0.41-0.68,0.66-1.66,0.66-3.07v-7.49c0-0.88-0.23-1.74-0.66-2.5h4.81l1.64,2.92l1.65-2.92h4.81
		c-0.4,0.33-0.64,0.86-0.64,1.41v10.25c0,0.27,0.06,0.55,0.17,0.78C722.59,654.06,722.76,654.27,722.95,654.43z"/>
	<path class="st1" d="M729.14,654.43c0.26-0.25,0.39-0.61,0.39-0.96c0-0.12-0.02-0.21-0.04-0.33l-0.68-2.58h-3.72
		c-0.04,0.18-0.06,0.37-0.06,0.57c0,1.04,0.56,2.29,1.17,3.31h-3.12c0.49-0.86,1.28-2.97,1.54-4.11l1.8-6.94
		c0.08-0.27,0.09-0.55,0.09-0.82c0-0.39-0.08-0.8-0.23-1.19h4.44l3.05,11.74c0.13,0.51,0.41,0.98,0.81,1.33H729.14z M728.69,650.01
		l-1.73-6.61l-1.71,6.61H728.69z"/>
	<path class="st1" d="M742.11,654.43c0.21-0.2,0.3-0.47,0.3-0.74c0-0.16-0.04-0.31-0.11-0.47l-2.76-5.38v5.18
		c0,0.55,0.24,1.08,0.66,1.41h-5.45c0.41-0.33,0.66-0.86,0.66-1.41v-10.25c0-0.55-0.24-1.08-0.66-1.41h5.45
		c-0.41,0.33-0.66,0.86-0.66,1.41v4.34l3.18-2.99c0.41-0.39,0.56-0.78,0.56-1.27c0-0.41-0.09-0.88-0.23-1.49h3.8
		c0,0-0.96,0.45-2.22,1.6l-0.62,0.61c-0.06,0.04-1.32,1.23-1.32,1.23l4.25,8.29c0.26,0.53,0.64,0.98,1.11,1.33H742.11z"/>
	<path class="st1" d="M752.99,641.91v4.87h0.02c0.6,0,1.2-0.18,1.71-0.49l2.07-1.27v4.07l-2.07-1.27c-0.51-0.33-1.11-0.49-1.71-0.49
		h-0.02v6.57h0.04c0.49,0,0.94-0.16,1.33-0.43l3.63-2.54v3.5h-9.79c0.41-0.33,0.66-0.84,0.66-1.41v-10.25
		c0-0.27-0.08-0.55-0.19-0.78c-0.11-0.23-0.26-0.45-0.47-0.63h9.79v3.5l-3.63-2.54c-0.4-0.27-0.85-0.41-1.33-0.41H752.99z"/>
	<path class="st1" d="M765.3,654.43c0.43-0.37,0.66-0.84,0.66-1.41v-1.84c0-0.67-0.13-1.15-0.41-1.45
		c-0.45-0.49-0.96-0.72-1.56-0.72h-0.75v4.01c0,0.61,0.21,1.08,0.64,1.41h-5.45c0.43-0.37,0.66-0.84,0.66-1.41v-10.25
		c0-0.57-0.23-1.04-0.66-1.41h7.12c1.18,0,2.11,0.18,2.8,0.51c0.7,0.35,1.18,0.82,1.48,1.39c0.28,0.59,0.43,1.23,0.43,1.94
		c0,0.65-0.17,1.23-0.53,1.78c-0.36,0.57-0.86,1.02-1.56,1.35c-0.7,0.35-1.52,0.53-2.5,0.53c1.05,0,1.99,0.2,2.8,0.57
		c1.09,0.51,1.64,1.37,1.64,2.54v1.06c0,0.61,0.21,1.08,0.64,1.41H765.3z M765.24,647.97c0.32-0.33,0.55-0.76,0.68-1.27
		c0.13-0.49,0.19-1,0.19-1.51c0-2.21-0.71-3.31-2.16-3.31h-0.71v6.59h0.71C764.49,648.48,764.92,648.31,765.24,647.97z"/>
</g>
<circle class="st17" cx="137.46" cy="591.08" r="76.92"/>
<circle class="st18" cx="137.46" cy="591.08" r="57.47"/>
<polygon class="st1" points="176.45,560.75 176.45,577.62 198.33,577.62 198.33,629.26 220.98,594.94 220.98,577.62 232.42,577.62 
	242.86,577.62 242.86,561.81 242.86,560.75 "/>
<rect x="864.77" y="513.7" class="st1" width="576" height="250.47"/>
<polyline class="st3" points="988.05,618.6 988.05,629.81 976.95,629.81 "/>
<polygon class="st13" points="988.05,629.81 988.05,618.6 976.95,629.81 "/>
<polygon class="st12" points="1037.41,629.81 1037.41,619.31 1030.48,629.81 "/>
<path class="st12" d="M1085.01,664.31h-14.54l-1.57-7.37h-16.69l-1.57,7.37h-14.54l10.43-45.71h28.1L1085.01,664.31z
	 M1054.43,645.98h12.26l-3.39-16.17h-5.41L1054.43,645.98z"/>
<path class="st12" d="M1137.24,639.2c0,1.52-0.32,2.85-0.95,3.98c-0.63,1.13-1.62,2-2.97,2.61c1.48,0.57,2.5,1.42,3.06,2.58
	c0.57,1.15,0.85,2.55,0.85,4.21v11.74h-13.69v-10.63c0-0.74-0.27-1.38-0.82-1.92c-0.54-0.54-1.19-0.82-1.92-0.82h-17.08v13.37
	h-15.13V618.6h38.41c3.22,0,5.73,0.83,7.53,2.48c1.81,1.65,2.71,4,2.71,7.04V639.2z M1103.73,629.81v9.91h17.08
	c0.74,0,1.38-0.27,1.92-0.82c0.54-0.54,0.82-1.18,0.82-1.92v-5.54c0-0.48-0.15-0.87-0.46-1.17c-0.31-0.3-0.7-0.46-1.17-0.46H1103.73
	z"/>
<path class="st12" d="M1184.98,629.81h-14.54v34.49h-15.06v-34.49h-14.54V618.6h44.15V629.81z"/>
<path class="st12" d="M958.64,635.81c-0.26,0-0.5-0.1-0.72-0.29c-0.22-0.2-0.33-0.45-0.33-0.75v-3.91c0-0.3,0.11-0.55,0.33-0.75
	c0.22-0.2,0.46-0.29,0.72-0.29h18.3l11.1-11.22h-36.12c-2.87,0-5.11,0.85-6.72,2.54c-1.61,1.7-2.41,3.83-2.41,6.39v10.56
	c0,2.57,0.8,4.7,2.41,6.39c1.61,1.7,3.85,2.54,6.72,2.54h7.98l11.1-11.21H958.64z"/>
<polygon class="st12" points="942.86,653.1 942.86,664.38 954.03,653.1 "/>
<path class="st13" d="M985.64,661.76c1.61-1.7,2.41-3.82,2.41-6.39v-10.56c0-2.61-0.81-4.76-2.41-6.46
	c-1.61-1.7-3.85-2.54-6.72-2.54h-7.91l-11.1,11.21h12.3c0.26,0,0.5,0.11,0.72,0.33c0.22,0.22,0.33,0.48,0.33,0.78v3.85
	c0,0.35-0.11,0.62-0.33,0.82c-0.22,0.2-0.46,0.29-0.72,0.29h-18.3l-11.1,11.22h36.12C981.79,664.31,984.03,663.46,985.64,661.76z"/>
<line class="st19" x1="1003.65" y1="603.02" x2="931.95" y2="675.19"/>
<line class="st19" x1="931.95" y1="603.02" x2="1003.65" y2="675.19"/>
<polygon class="st12" points="1022.87,664.31 1022.87,641.33 1007.81,664.14 1007.81,664.31 "/>
<text transform="matrix(1 0 0 1 1188.975 663.8918)" class="st13" style="font-family:'Microsport-Bold'; font-size:64.0407px;">Here</text>
<g>
	<text transform="matrix(0.9609 0 0 1 1119.0922 686.8449)" class="st12" style="font-family:'Suifak'; font-size:15.0671px;">CV MAKER</text>
</g>
<circle class="st17" cx="967.35" cy="638.76" r="51.13"/>
<circle class="st18" cx="967.35" cy="638.76" r="38.2"/>
<polygon class="st12" points="993.27,618.6 993.27,629.81 1007.81,629.81 1007.81,664.14 1022.87,641.33 1022.87,629.81 
	1030.48,629.81 1037.41,619.31 1037.41,618.6 "/>
<path class="st12" d="M208.16,154.28h-31.71v16.87h21.87v51.64l0,0v0.25h5.76h16.9v-34.56v-17.33h11.44h10.44v-15.8v-1.07H208.16z
	 M209.93,158.84c-0.15-0.41-0.28-0.82-0.43-1.22C209.65,158.02,209.78,158.43,209.93,158.84z M214.29,181
	c-0.04-0.85-0.11-1.69-0.18-2.53C214.18,179.31,214.25,180.15,214.29,181z M214.02,177.26c-0.07-0.76-0.17-1.51-0.26-2.27
	C213.85,175.75,213.95,176.5,214.02,177.26z M213.57,173.55c-0.1-0.7-0.22-1.4-0.34-2.09C213.36,172.16,213.47,172.85,213.57,173.55
	z M212.95,169.87c-0.13-0.65-0.26-1.29-0.4-1.93C212.69,168.58,212.82,169.23,212.95,169.87z M212.14,166.22
	c-0.14-0.59-0.29-1.18-0.45-1.76C211.85,165.04,212,165.63,212.14,166.22z M211.15,162.57c-0.16-0.52-0.31-1.04-0.47-1.56
	C210.84,161.52,210.99,162.05,211.15,162.57z M204.2,222.83c2.42-4.22,4.46-8.69,6.06-13.36
	C208.66,214.14,206.62,218.61,204.2,222.83z M210.27,209.44c0.26-0.77,0.51-1.54,0.75-2.32
	C210.78,207.9,210.53,208.67,210.27,209.44z M211.05,207.02c0.23-0.76,0.45-1.52,0.66-2.28C211.5,205.5,211.28,206.26,211.05,207.02
	z M211.76,204.55c0.2-0.74,0.39-1.49,0.57-2.24C212.15,203.07,211.95,203.81,211.76,204.55z M212.39,202.02
	c0.17-0.71,0.33-1.43,0.47-2.15C212.71,200.59,212.55,201.31,212.39,202.02z M212.94,199.42c0.13-0.67,0.26-1.34,0.37-2.02
	C213.2,198.07,213.08,198.74,212.94,199.42z M213.42,196.75c0.1-0.62,0.2-1.24,0.28-1.86C213.61,195.51,213.51,196.13,213.42,196.75
	z M213.8,194.02c0.07-0.55,0.14-1.11,0.2-1.67C213.94,192.92,213.87,193.47,213.8,194.02z M214.08,191.29
	c0.04-0.5,0.09-0.99,0.12-1.49C214.17,190.3,214.13,190.79,214.08,191.29z M214.27,188.49c0.02-0.43,0.05-0.85,0.06-1.28
	C214.32,187.64,214.29,188.07,214.27,188.49z"/>
<g>
	<g>
		<path class="st20" d="M214.29,181c0.06,1.2,0.09,2.4,0.09,3.61c0,13.92-3.72,26.97-10.19,38.24"/>
		<g>
			<path class="st20" d="M204.19,222.85c6.47-11.27,10.19-24.31,10.19-38.24c0-1.21-0.04-2.41-0.09-3.61"/>
		</g>
	</g>
</g>
</svg>
