<?xml version="1.0" encoding="utf-8"?>
<!-- Generator: Adobe Illustrator 27.8.1, SVG Export Plug-In . SVG Version: 6.00 Build 0)  -->
<svg version="1.1" id="Calque_1" xmlns="http://www.w3.org/2000/svg" xmlns:xlink="http://www.w3.org/1999/xlink" x="0px" y="0px"
	 viewBox="0 0 700 700" style="enable-background:new 0 0 700 700;" xml:space="preserve">
<style type="text/css">
	.st0{fill:#FFD93A;}
	.st1{font-family:'Impact';}
	.st2{font-size:64.746px;}
	.st3{fill:#1A1D39;}
	.st4{font-size:39.3336px;}
	.st5{fill:none;stroke:#FFD93A;stroke-width:0.75;stroke-miterlimit:10;}
	.st6{fill:none;stroke:#FFD93A;stroke-miterlimit:10;}
</style>
<text transform="matrix(1 0 0 1 277.1894 551.0992)" class="st0 st1 st2">WEB </text>
<g>
	<text transform="matrix(1 0 0 1 91.8696 604.9547)" class="st3 st1 st4">AGENCE DE DÉVELOPPEMENT WEB</text>
</g>
<g>
	<circle class="st3" cx="371.74" cy="456.61" r="10.04"/>
	<circle class="st5" cx="375.1" cy="456.61" r="10.04"/>
	<g>
		<path class="st3" d="M334.57,96.56c13.91-8.88,32.55-4.76,41.43,9.15l65.43,102.54c8.88,13.91,4.76,32.55-9.15,41.43l-43.64,27.85
			c-13.91,8.88-18.03,27.52-9.15,41.43l27.85,43.64c8.88,13.91,4.76,32.55-9.15,41.43l-102.54,65.43
			c-13.91,8.88-32.55,4.76-41.43-9.15l-4-6.27c-8.88-13.91-4.94-32.83,8.74-42.06l42.67-28.75c13.68-9.22,17.62-28.15,8.74-42.06
			l-27.66-43.34c-8.88-13.91-4.78-32.59,9.1-41.51l43.55-27.99c13.88-8.92,17.98-27.6,9.1-41.51l-27.66-43.34
			c-8.88-13.91-4.76-32.55,9.15-41.43L334.57,96.56z"/>
	</g>
	<g>
		<path class="st6" d="M350.1,96.56c13.91-8.88,32.55-4.76,41.43,9.15l65.43,102.54c8.88,13.91,4.76,32.55-9.15,41.43l-43.64,27.85
			c-13.91,8.88-18.03,27.52-9.15,41.43l27.85,43.64c8.88,13.91,4.76,32.55-9.15,41.43l-102.54,65.43
			c-13.91,8.88-32.55,4.76-41.43-9.15l-4-6.27c-8.88-13.91-4.94-32.83,8.74-42.06l42.67-28.75c13.68-9.22,17.62-28.15,8.74-42.06
			l-27.66-43.34c-8.88-13.91-4.78-32.59,9.1-41.51l43.55-27.99c13.88-8.92,17.98-27.6,9.1-41.51l-27.66-43.34
			c-8.88-13.91-4.76-32.55,9.15-41.43L350.1,96.56z"/>
	</g>
</g>
</svg>
